# xmcd
#
# Track frame offsets:
#	150
#	13046
#	22556
#	36698
#	48898
#	61106
#	70943
#	81586
#	97948
#	112245
#
# Disc length: 1667 seconds
#
# Revision: 0
# Processed by: cddbd v1.5.2PL0 Copyright (c) Steve Scherf et al.
# Submitted via: FairStars CD Ripper 1.90
#
DISCID=7d06810a
DTITLE=Merla Haggard - 20 #1 Hits!
DYEAR=2008
DGENRE=Country
TTITLE0=The Fighting Side Of Me
TTITLE1=The Legend Of Bonnie And Clyde
TTITLE2=I'm A Lonesome Fugitive
TTITLE3=Okie From Muskogee
TTITLE4=Workin' Man Blues
TTITLE5=Mama Tried
TTITLE6=Old Man From The Mountain
TTITLE7=Hungry Eyes
TTITLE8=Branded Man
TTITLE9=Sing Me Back Home
EXTD=
EXTT0=
EXTT1=
EXTT2=
EXTT3=
EXTT4=
EXTT5=
EXTT6=
EXTT7=
EXTT8=
EXTT9=
PLAYORDER=
